# xmcd
# Track frame offsets:
# 150
# 16150
# 40736
# 64981
# 83970
# 98452
# 116546
# 132935
# 145994
#
# Disc length: 2365 seconds
# Revision: 0
# Processed by: cddbd v1.5.2PL0 Copyright (c) Steve Scherf et al.
# Submitted via: VisiTrax 2.11.1.266 - For more info visit www.synapsa.com
#
DISCID=70093b09
DTITLE=Supercharge - Local Lads Make Good
DYEAR=1978
DGENRE=70s Soul Funk
TTITLE0=Lonely and in Love
TTITLE1=Hole Town
TTITLE2=Everyone Everywhere
TTITLE3=I Believe In You
TTITLE4=Get Down Boogie
TTITLE5=Only You
TTITLE6=Gimme Your Love
TTITLE7=Get Up and Dance
TTITLE8=She Moved The Dishes First
EXTD=
EXTT0=
EXTT1=
EXTT2=
EXTT3=
EXTT4=
EXTT5=
EXTT6=
EXTT7=
EXTT8=
PLAYORDER=
